<?xml version="1.0" encoding="utf-8"?>
<!-- Generator: Adobe Illustrator 28.0.0, SVG Export Plug-In . SVG Version: 6.00 Build 0)  -->
<svg version="1.1" id="Capa_1" xmlns="http://www.w3.org/2000/svg" xmlns:xlink="http://www.w3.org/1999/xlink" x="0px" y="0px"
	 viewBox="0 0 205.5 285" style="enable-background:new 0 0 205.5 285;" xml:space="preserve">
<style type="text/css">
	.st0{fill:#3D63E7;}
</style>
<g>
	<g>
		<g>
			<g>
				<g>
					<g>
						<g>
							<g>
								<path class="st0" d="M111.1,215.5c5.5,5,14.3,14.2,14.1,21.6c0,0.3,0,0.7,0,1.1c-0.8,8.4-8,13.2-16.6,13.2
									c-10.6,0-17-7.1-16.5-15.2c0.4-6.9,8.7-15.6,13.8-20.2c1-0.9,1.1-1.1,2.4-1.5C109.7,214.4,109.9,214.5,111.1,215.5z
									 M168.1,62.2c-6.9-10.9-16.4-17.3-26.9-22.2c-10.8-4.6-23.2-6.5-32.6-6.5c-18.8,0-30.3,5.6-34.5,7.4
									c-22.8,11.9-35.9,29.7-35.3,60.1c3,35,41.3,74.8,66.3,99.4c0.7,0.7,1.9,1.9,2.6,2.2l1.4,0c0.9-0.3,0.8-0.2,1.5-0.9
									c22.2-20.9,59.8-62,66.3-91.7C179.9,93.4,178.3,79.2,168.1,62.2z M106.4,183.3c-11.9-21.7-27.7-55.6-29.5-80.4
									c-1.4-20.2,4.8-55.8,29.5-58.1C106.4,44.8,106.4,183.3,106.4,183.3z M166.8,110.2c-7,24.2-32.9,54.4-50.6,72.4
									c11.8-22.1,27.7-56.7,28.6-81.6c0.7-19.5-4.2-45-20.4-55.9C162.1,52.9,173.5,86.8,166.8,110.2z"/>
							</g>
						</g>
					</g>
				</g>
			</g>
		</g>
	</g>
</g>
</svg>
