<?xml version="1.0" encoding="utf-8"?>
<!-- Generator: Adobe Illustrator 28.0.0, SVG Export Plug-In . SVG Version: 6.00 Build 0)  -->
<svg version="1.1" id="Capa_1" xmlns="http://www.w3.org/2000/svg" xmlns:xlink="http://www.w3.org/1999/xlink" x="0px" y="0px"
	 viewBox="0 0 719.4 285" style="enable-background:new 0 0 719.4 285;" xml:space="preserve">
<style type="text/css">
	.st0{fill:#3D63E7;}
</style>
<g>
	<g>
		<g>
			<g>
				<g>
					<g>
						<g>
							<g>
								<path class="st0" d="M88.8,191.4c4.2,3.8,11,10.9,10.9,16.6c0,0.3,0,0.5,0,0.8c-0.6,6.5-6.2,10.2-12.8,10.2
									c-8.2,0-13.1-5.5-12.7-11.7c0.3-5.3,6.7-12,10.6-15.6c0.8-0.7,0.9-0.9,1.8-1.2C87.7,190.5,87.9,190.6,88.8,191.4z
									 M132.7,73.3c-5.3-8.4-12.6-13.3-20.7-17.1c-8.4-3.5-17.9-5-25.1-5c-14.4,0-23.3,4.3-26.6,5.7
									c-17.6,9.1-27.7,22.9-27.2,46.3c2.3,26.9,31.8,57.7,51,76.6c0.6,0.5,1.5,1.5,2,1.7l1.1,0c0.7-0.2,0.6-0.2,1.1-0.7
									c17.1-16.1,46.1-47.8,51.1-70.7C141.8,97.3,140.5,86.4,132.7,73.3z M85.2,166.6c-9.2-16.7-21.4-42.8-22.7-61.9
									c-1.1-15.6,3.7-43,22.7-44.8C85.2,59.9,85.2,166.6,85.2,166.6z M131.7,110.3c-5.4,18.6-25.3,41.9-39,55.8
									c9.1-17,21.4-43.7,22-62.9c0.5-15-3.2-34.7-15.7-43.1C128.1,66.1,136.8,92.3,131.7,110.3z"/>
							</g>
						</g>
					</g>
				</g>
			</g>
		</g>
	</g>
</g>
<g>
	<g>
		<path class="st0" d="M167.2,181.5v-63.2h25.3c4.7,0,8.5,0.7,11.6,2.1c3.1,1.4,5.4,3.3,7,5.7c1.6,2.4,2.3,5.2,2.3,8.4
			c0,2.5-0.5,4.6-1.5,6.5c-1,1.9-2.3,3.4-4.1,4.6c-1.7,1.2-3.7,2-5.9,2.5v0.6c2.4,0.1,4.7,0.8,6.8,2s3.8,3,5.1,5.3
			c1.3,2.3,2,4.9,2,8c0,3.4-0.8,6.3-2.5,9c-1.7,2.6-4.1,4.7-7.3,6.2c-3.2,1.5-7.2,2.3-12,2.3H167.2z M180.6,144.8h9.9
			c1.8,0,3.5-0.3,4.9-1c1.4-0.6,2.6-1.6,3.4-2.8c0.8-1.2,1.3-2.6,1.3-4.3c0-2.3-0.8-4.1-2.4-5.5c-1.6-1.4-3.9-2.1-6.9-2.1h-10.2
			V144.8z M180.6,170.6h10.9c3.7,0,6.4-0.7,8.2-2.1c1.7-1.4,2.6-3.3,2.6-5.7c0-1.7-0.4-3.3-1.3-4.6c-0.8-1.3-2-2.4-3.6-3.2
			c-1.6-0.8-3.4-1.1-5.5-1.1h-11.2V170.6z"/>
		<path class="st0" d="M237.6,118.3v63.2h-13.2v-63.2H237.6z"/>
		<path class="st0" d="M278.5,161.4v-27.2h13.2v47.4H279v-8.6h-0.5c-1.1,2.8-2.8,5-5.3,6.7c-2.5,1.7-5.5,2.5-9.1,2.5
			c-3.2,0-6-0.7-8.4-2.2c-2.4-1.4-4.3-3.5-5.6-6.1c-1.3-2.7-2-5.8-2.1-9.5v-30.2h13.2V162c0,2.8,0.8,5,2.3,6.6
			c1.5,1.6,3.5,2.4,6,2.4c1.6,0,3.1-0.4,4.4-1.1c1.4-0.7,2.5-1.8,3.4-3.3C278.1,165.3,278.5,163.5,278.5,161.4z"/>
		<path class="st0" d="M323.8,182.5c-4.9,0-9.1-1-12.6-3c-3.5-2-6.2-4.8-8.1-8.5c-1.9-3.7-2.8-8-2.8-13c0-4.9,0.9-9.2,2.8-12.8
			c1.9-3.7,4.6-6.6,8-8.6c3.4-2.1,7.5-3.1,12.2-3.1c3.1,0,6,0.5,8.8,1.5c2.7,1,5.1,2.5,7.1,4.5c2,2,3.6,4.5,4.7,7.5
			c1.1,3,1.7,6.5,1.7,10.6v3.6h-40.1V153h27.7c0-1.9-0.4-3.6-1.2-5c-0.8-1.5-2-2.6-3.4-3.4c-1.5-0.8-3.1-1.3-5-1.3
			c-2,0-3.8,0.5-5.3,1.4c-1.5,0.9-2.7,2.1-3.6,3.7c-0.9,1.5-1.3,3.2-1.3,5.1v7.8c0,2.3,0.4,4.4,1.3,6.1s2.1,3,3.7,4
			c1.6,0.9,3.5,1.4,5.7,1.4c1.5,0,2.8-0.2,4-0.6c1.2-0.4,2.3-1,3.1-1.9c0.9-0.8,1.5-1.8,2-3l12.2,0.8c-0.6,2.9-1.9,5.5-3.8,7.6
			c-1.9,2.2-4.4,3.9-7.3,5.1C331.2,181.9,327.7,182.5,323.8,182.5z"/>
		<path class="st0" d="M354.4,118.3h16.5l17.4,42.5h0.7l17.4-42.5H423v63.2h-13v-41.2h-0.5l-16.4,40.9h-8.8l-16.4-41h-0.5v41.3h-13
			V118.3z"/>
		<path class="st0" d="M440.3,128c-2,0-3.6-0.6-5-1.9c-1.4-1.3-2.1-2.9-2.1-4.7s0.7-3.4,2.1-4.7c1.4-1.3,3.1-2,5-2
			c2,0,3.6,0.6,5,1.9c1.4,1.3,2.1,2.9,2.1,4.7c0,1.8-0.7,3.4-2.1,4.7C443.9,127.3,442.3,128,440.3,128z M433.7,181.5v-47.4h13.2
			v47.4H433.7z"/>
		<path class="st0" d="M478.7,200.3c-4.3,0-7.9-0.6-10.9-1.7s-5.5-2.7-7.2-4.7c-1.8-2-3-4.2-3.5-6.7l12.2-1.6c0.4,0.9,1,1.8,1.8,2.7
			c0.8,0.8,1.9,1.5,3.2,2c1.3,0.5,2.9,0.8,4.9,0.8c2.9,0,5.2-0.7,7.1-2.1s2.8-3.7,2.8-7v-8.7h-0.6c-0.6,1.3-1.4,2.6-2.6,3.7
			c-1.2,1.2-2.6,2.1-4.4,2.9s-4,1.1-6.5,1.1c-3.6,0-6.8-0.8-9.7-2.5c-2.9-1.7-5.2-4.2-6.9-7.6c-1.7-3.4-2.6-7.8-2.6-13
			c0-5.4,0.9-9.9,2.6-13.5c1.7-3.6,4.1-6.3,7-8.1c2.9-1.8,6.1-2.7,9.6-2.7c2.7,0,4.9,0.4,6.7,1.3c1.8,0.9,3.2,2,4.3,3.3
			c1.1,1.3,2,2.6,2.5,3.9h0.5v-8h13.1V182c0,4-1,7.4-3,10.1s-4.7,4.8-8.2,6.1C487.3,199.6,483.3,200.3,478.7,200.3z M479,171
			c2.1,0,3.9-0.5,5.4-1.6c1.5-1.1,2.6-2.6,3.4-4.6c0.8-2,1.2-4.4,1.2-7.1c0-2.8-0.4-5.2-1.2-7.2s-1.9-3.6-3.4-4.8s-3.3-1.7-5.4-1.7
			c-2.2,0-4,0.6-5.5,1.7s-2.6,2.8-3.4,4.8c-0.8,2.1-1.1,4.4-1.1,7.1c0,2.7,0.4,5.1,1.2,7.1c0.8,2,1.9,3.5,3.4,4.6
			C475,170.4,476.8,171,479,171z"/>
		<path class="st0" d="M512.4,181.5v-47.4h12.8v8.3h0.5c0.9-2.9,2.3-5.2,4.4-6.7s4.4-2.3,7-2.3c0.7,0,1.4,0,2.1,0.1
			c0.8,0.1,1.4,0.2,2,0.3v11.7c-0.6-0.2-1.5-0.3-2.6-0.5c-1.1-0.1-2.1-0.2-3-0.2c-1.9,0-3.7,0.4-5.2,1.3c-1.5,0.8-2.7,2-3.6,3.5
			s-1.3,3.2-1.3,5.1v26.8H512.4z"/>
		<path class="st0" d="M561.5,182.4c-3,0-5.7-0.5-8.1-1.6c-2.4-1.1-4.2-2.6-5.6-4.7c-1.4-2.1-2.1-4.7-2.1-7.8c0-2.6,0.5-4.8,1.5-6.6
			c1-1.8,2.3-3.2,4-4.3c1.7-1.1,3.6-1.9,5.7-2.5c2.1-0.6,4.4-0.9,6.7-1.2c2.8-0.3,5-0.6,6.7-0.8c1.7-0.3,2.9-0.6,3.7-1.2
			c0.8-0.5,1.1-1.3,1.1-2.3v-0.2c0-2-0.6-3.5-1.8-4.5c-1.2-1.1-3-1.6-5.2-1.6c-2.4,0-4.3,0.5-5.7,1.6c-1.4,1-2.3,2.3-2.8,3.9
			l-12.2-1c0.6-2.9,1.8-5.4,3.6-7.5c1.8-2.1,4.2-3.7,7-4.9s6.2-1.7,10-1.7c2.6,0,5.2,0.3,7.6,0.9c2.4,0.6,4.6,1.6,6.5,2.9
			c1.9,1.3,3.4,3,4.5,5c1.1,2,1.6,4.5,1.6,7.3v32h-12.5V175h-0.4c-0.8,1.5-1.8,2.8-3.1,3.9c-1.3,1.1-2.8,2-4.6,2.6
			S563.8,182.4,561.5,182.4z M565.3,173.4c1.9,0,3.6-0.4,5.1-1.2c1.5-0.8,2.6-1.8,3.5-3.1c0.8-1.3,1.3-2.8,1.3-4.5v-5
			c-0.4,0.3-1,0.5-1.7,0.7c-0.7,0.2-1.5,0.4-2.4,0.6c-0.9,0.2-1.8,0.3-2.7,0.5c-0.9,0.1-1.7,0.3-2.4,0.4c-1.5,0.2-2.9,0.6-4,1.1
			c-1.2,0.5-2,1.2-2.7,2c-0.6,0.8-1,1.9-1,3.1c0,1.8,0.7,3.2,2,4.1C561.6,172.9,563.2,173.4,565.3,173.4z"/>
		<path class="st0" d="M623.7,134.1v9.9h-28.6v-9.9H623.7z M601.6,122.7h13.2V167c0,1.2,0.2,2.2,0.6,2.8c0.4,0.7,0.9,1.1,1.6,1.4
			c0.7,0.3,1.4,0.4,2.3,0.4c0.6,0,1.2-0.1,1.9-0.2c0.6-0.1,1.1-0.2,1.4-0.3l2.1,9.8c-0.7,0.2-1.6,0.4-2.8,0.7
			c-1.2,0.3-2.6,0.4-4.4,0.5c-3.2,0.1-5.9-0.3-8.3-1.3s-4.2-2.5-5.5-4.5c-1.3-2-2-4.6-1.9-7.7V122.7z"/>
		<path class="st0" d="M653.8,182.5c-4.9,0-9.1-1-12.6-3c-3.5-2-6.2-4.8-8.1-8.5c-1.9-3.7-2.8-8-2.8-13c0-4.9,0.9-9.2,2.8-12.8
			c1.9-3.7,4.6-6.6,8-8.6c3.4-2.1,7.5-3.1,12.2-3.1c3.1,0,6,0.5,8.8,1.5c2.7,1,5.1,2.5,7.1,4.5c2,2,3.6,4.5,4.7,7.5
			c1.1,3,1.7,6.5,1.7,10.6v3.6h-40.1V153h27.7c0-1.9-0.4-3.6-1.2-5c-0.8-1.5-2-2.6-3.4-3.4c-1.5-0.8-3.1-1.3-5-1.3
			c-2,0-3.8,0.5-5.3,1.4c-1.5,0.9-2.7,2.1-3.6,3.7c-0.9,1.5-1.3,3.2-1.3,5.1v7.8c0,2.3,0.4,4.4,1.3,6.1s2.1,3,3.7,4
			c1.6,0.9,3.5,1.4,5.7,1.4c1.5,0,2.8-0.2,4-0.6c1.2-0.4,2.3-1,3.1-1.9c0.9-0.8,1.5-1.8,2-3l12.2,0.8c-0.6,2.9-1.9,5.5-3.8,7.6
			c-1.9,2.2-4.4,3.9-7.3,5.1C661.2,181.9,657.7,182.5,653.8,182.5z"/>
	</g>
</g>
</svg>
